<svg width="64" height="64" viewBox="0 0 64 64" fill="none" xmlns="http://www.w3.org/2000/svg">
  <circle cx="32" cy="32" r="32" fill="#F0FDF4"/>
  <circle cx="32" cy="24" r="8" fill="#22C55E"/>
  <path d="M16 52C16 44.268 22.268 38 30 38H34C41.732 38 48 44.268 48 52V56H16V52Z" fill="#22C55E"/>
  <circle cx="28" cy="22" r="2" fill="#15803D"/>
  <circle cx="36" cy="22" r="2" fill="#15803D"/>
  <path d="M30 28C30 27.4477 30.4477 27 31 27H33C33.5523 27 34 27.4477 34 28V30C34 30.5523 33.5523 31 33 31H31C30.4477 31 30 30.5523 30 30V28Z" fill="#15803D"/>
  <rect x="28" y="16" width="8" height="4" rx="2" fill="#15803D"/>
</svg>
