<svg width="64" height="64" viewBox="0 0 64 64" fill="none" xmlns="http://www.w3.org/2000/svg">
  <circle cx="32" cy="32" r="32" fill="#FCE7F3"/>
  <circle cx="32" cy="24" r="8" fill="#EC4899"/>
  <path d="M16 52C16 44.268 22.268 38 30 38H34C41.732 38 48 44.268 48 52V56H16V52Z" fill="#EC4899"/>
  <circle cx="28" cy="22" r="2" fill="#BE185D"/>
  <circle cx="36" cy="22" r="2" fill="#BE185D"/>
  <path d="M30 28C30 27.4477 30.4477 27 31 27H33C33.5523 27 34 27.4477 34 28V30C34 30.5523 33.5523 31 33 31H31C30.4477 31 30 30.5523 30 30V28Z" fill="#BE185D"/>
  <path d="M24 20C24 18.8954 24.8954 18 26 18H38C39.1046 18 40 18.8954 40 20V22C40 23.1046 39.1046 24 38 24H26C24.8954 24 24 23.1046 24 22V20Z" fill="#BE185D"/>
</svg>
