<svg width="64" height="64" viewBox="0 0 64 64" fill="none" xmlns="http://www.w3.org/2000/svg">
  <circle cx="32" cy="32" r="32" fill="#FEF3C7"/>
  <circle cx="32" cy="24" r="8" fill="#F59E0B"/>
  <path d="M16 52C16 44.268 22.268 38 30 38H34C41.732 38 48 44.268 48 52V56H16V52Z" fill="#F59E0B"/>
  <circle cx="28" cy="22" r="2" fill="#D97706"/>
  <circle cx="36" cy="22" r="2" fill="#D97706"/>
  <path d="M30 28C30 27.4477 30.4477 27 31 27H33C33.5523 27 34 27.4477 34 28V30C34 30.5523 33.5523 31 33 31H31C30.4477 31 30 30.5523 30 30V28Z" fill="#D97706"/>
  <path d="M26 18C26 16.8954 26.8954 16 28 16H36C37.1046 16 38 16.8954 38 18V20C38 21.1046 37.1046 22 36 22H28C26.8954 22 26 21.1046 26 20V18Z" fill="#D97706"/>
  <circle cx="32" cy="19" r="1" fill="#FEF3C7"/>
</svg>
