<svg width="64" height="64" viewBox="0 0 64 64" fill="none" xmlns="http://www.w3.org/2000/svg">
  <circle cx="32" cy="32" r="32" fill="#DBEAFE"/>
  <circle cx="32" cy="24" r="8" fill="#3B82F6"/>
  <path d="M16 52C16 44.268 22.268 38 30 38H34C41.732 38 48 44.268 48 52V56H16V52Z" fill="#3B82F6"/>
  <circle cx="28" cy="22" r="2" fill="#1E40AF"/>
  <circle cx="36" cy="22" r="2" fill="#1E40AF"/>
  <path d="M30 28C30 27.4477 30.4477 27 31 27H33C33.5523 27 34 27.4477 34 28V30C34 30.5523 33.5523 31 33 31H31C30.4477 31 30 30.5523 30 30V28Z" fill="#1E40AF"/>
  <rect x="26" y="18" width="12" height="2" rx="1" fill="#1E40AF"/>
</svg>
